
Genre:Horror
Language:English
IMDb:http://www.imdb.com/title/tt1442492/
Source:DVD PAL

General
Complete name :Damned.By.Dawn.2009.DvDRip.H264.Feel-Free
Format : MPEG-4
Format profile : Base Media
Codec ID : isom
File size : 590 MiB
Duration : 1h 24mn
Overall bit rate : 977 Kbps
Video #2
Codec ID : avc1
Codec ID/Info : Advanced Video Coding
Duration : 1h 24mn
Bit rate mode : Variable
Bit rate : 811 Kbps
Width : 720 pixels
Height : 384 pixels
Display aspect ratio : 1.875
Frame rate mode : Constant
Frame rate : 23.976 fps
Original frame rate : 23.000 fps
Resolution : 24 bits
Colorimetry : 4:2:0
Scan type : Progressive
Bits/(Pixel*Frame) : 0.122
Stream size : 490 MiB (83%)
Audio #1
ID : 1
Format : AAC
Format/Info : Advanced Audio Codec
Format version : Version 4
Format profile : LC
Format settings, SBR : No
Codec ID : 40
Duration : 1h 24mn
Bit rate mode : Constant
Bit rate : 160 Kbps
Channel(s) : 2 channels
Channel positions : L R
Sampling rate : 48.0 KHz
Resolution : 16 bits
Stream size : 96.7 MiB (16%)

Plot:
During a violent thunderstorm, a family is awoken by piercing shrieks which summon the dead to rise again. Their lives explode in a blood soaked fury as they battle malevolent spirits, whilst fighting to save their souls from eternal torment with... the Banshee.


TRAILER 
http://www.youtube.com/watch?v=PHJLpiLy7pA


SCREENS 
http://rapidhdd.com/images/157679vlcsnap-2010-11-05-06h43m00s195.png 
http://www.rapidhdd.com/images/262990vlcsnap-2010-11-05-06h45m04s160.png 
http://www.rapidhdd.com/images/303691vlcsnap-2010-11-05-06h44m36s130.png 
http://www.rapidhdd.com/images/148230vlcsnap-2010-11-05-06h46m13s82.png 
http://www.rapidhdd.com/images/577341vlcsnap-2010-11-05-06h52m41s126.png 
http://www.rapidhdd.com/images/646331vlcsnap-2010-11-05-06h54m59s223.png


